<svg xmlns="http://www.w3.org/2000/svg" viewBox="0 0 100 100">
                <rect width="100" height="100" fill="#2c3e50"/>
                <circle cx="35" cy="35" r="8" fill="white"/>
                <circle cx="65" cy="35" r="8" fill="white"/>
                <circle cx="35" cy="32" r="3" fill="black"/>
                <circle cx="65" cy="32" r="3" fill="black"/>
                <path d="M25 15 L75 15 L70 25 L30 25 Z" fill="#6c7b7f"/>
                <path d="M25 15 L35 5 L40 15" fill="#6c7b7f"/>
                <path d="M75 15 L65 5 L60 15" fill="#6c7b7f"/>
                <ellipse cx="50" cy="45" rx="3" ry="2" fill="#ff6b6b"/>
                <path d="M40 55 Q50 65 60 55" stroke="black" stroke-width="2" fill="none"/>
                <path d="M25 70 Q35 60 45 70" stroke="black" stroke-width="1.5" fill="none"/>
                <path d="M55 70 Q65 60 75 70" stroke="black" stroke-width="1.5" fill="none"/>
                <path d="M35 75 Q45 65 55 75" stroke="black" stroke-width="1.5" fill="none"/>
            </svg>